<svg xmlns="http://www.w3.org/2000/svg" version="1.1" xmlns:xlink="http://www.w3.org/1999/xlink" xmlns:svgjs="http://svgjs.dev/svgjs" width="1500" height="1500" viewBox="0 0 1500 1500"><rect width="1500" height="1500" fill="#ffffff"></rect><g transform="matrix(0.6666666666666666,0,0,0.6666666666666666,250,250)"><svg viewBox="0 0 280 280" data-background-color="#ffffff" preserveAspectRatio="xMidYMid meet" height="1500" width="1500" xmlns="http://www.w3.org/2000/svg" xmlns:xlink="http://www.w3.org/1999/xlink"><g id="tight-bounds" transform="matrix(1,0,0,1,0,0)"><svg viewBox="0 0 280 280" height="280" width="280"><g><svg viewBox="0 0 280 280" height="280" width="280"><g><svg viewBox="0 0 280 280" height="280" width="280"><g id="textblocktransform"><svg viewBox="0 0 280 280" height="280" width="280" id="textblock"><g><svg viewBox="0 0 280 280" height="280" width="280"><g transform="matrix(1,0,0,1,57.50420886156945,57.50420886156945)"><svg viewBox="0 0 164.9915822768611 164.9915822768611" height="164.9915822768611" width="164.9915822768611"><g id="icon-0"><circle r="82" cx="82.49579113843055" cy="82.49579113843055" fill="#528265" data-fill-palette-color="accent"></circle><svg xmlns="http://www.w3.org/2000/svg" data-name="Layer 1" viewBox="7 17 66 52.00028461504819" x="24.748737341529164" y="24.74873734152917" height="115.49410759380275" width="115.49410759380275" class="icon-xg-0" data-fill-palette-color="quaternary" id="xg-0"><path d="M36.083 63H67a6.007 6.007 0 0 0 6-6V23a6.007 6.007 0 0 0-6-6H13a6.007 6.007 0 0 0-6 6V57a6.007 6.007 0 0 0 6 6 2 2 0 0 0 0-4 2 2 0 0 1-2-2V31H69V57a2 2 0 0 1-2 2H36.083a2 2 0 0 0 0 4ZM11 27V23a2 2 0 0 1 2-2H67a2 2 0 0 1 2 2v4Z" fill="#ffffff" data-fill-palette-color="quaternary"></path><circle cx="14" cy="24" r="2.0" fill="#ffffff" data-fill-palette-color="quaternary"></circle><circle cx="19" cy="24" r="2.0" fill="#ffffff" data-fill-palette-color="quaternary"></circle><circle cx="24" cy="24" r="2.0" fill="#ffffff" data-fill-palette-color="quaternary"></circle><path d="M16 64.083a4.915 4.915 0 0 0 8.389 3.479L35.744 56.206a12.045 12.045 0 1 0-6.95-6.95L17.438 60.61A4.877 4.877 0 0 0 16 64.083ZM40 37a8.014 8.014 0 1 1-4.647 14.5c-0.079-0.057-0.157-0.115-0.233-0.175a8.012 8.012 0 0 1-0.705-0.608q-0.066-0.064-0.13-0.13a8.012 8.012 0 0 1-0.608-0.705c-0.059-0.077-0.118-0.154-0.175-0.233a8.069 8.069 0 0 1-0.548-0.866A8 8 0 0 1 40 37ZM20.267 63.439L30.894 52.813c0.057 0.067 0.127 0.121 0.186 0.186A12.078 12.078 0 0 0 32 53.92c0.065 0.059 0.119 0.129 0.186 0.186L21.56 64.733a0.9 0.9 0 0 1-0.643 0.267 0.915 0.915 0 0 1-0.65-1.561Z" fill="#ffffff" data-fill-palette-color="quaternary"></path></svg></g></svg></g><g id="text-0"><path d="M32.351 110.584l-26.43-8.901 5.455-16.198 2.983 1.004-4.358 12.942 8.448 2.845 4.047-12.016 2.907 0.979-4.047 12.016 12.092 4.073z" fill="#528265" data-fill-palette-color="primary"></path><path d="M46.341 79.666l-17.332-11.149 1.458-2.947 17.641 11.349zM23.801 65.806v0c-0.531-0.341-0.857-0.804-0.978-1.388-0.127-0.587-0.022-1.143 0.315-1.668v0c0.352-0.547 0.829-0.896 1.431-1.046 0.596-0.153 1.159-0.059 1.689 0.282v0c0.525 0.338 0.844 0.811 0.958 1.421 0.108 0.606-0.015 1.183-0.367 1.73v0c-0.338 0.525-0.797 0.853-1.379 0.984-0.587 0.127-1.143 0.022-1.669-0.315z" fill="#528265" data-fill-palette-color="primary"></path><path d="M60.276 62.216l-22.195-21.106 1.984-2.621 22.462 21.36z" fill="#528265" data-fill-palette-color="primary"></path><path d="M87.541 37.796l1.979 1.992c-0.435 0.493-0.897 0.975-1.386 1.446-0.494 0.475-1.053 0.97-1.677 1.487-0.624 0.517-1.305 1.007-2.041 1.469v0c-1.159 0.727-2.333 1.241-3.525 1.542-1.2 0.299-2.393 0.322-3.578 0.07-1.185-0.252-2.35-0.815-3.493-1.688-1.147-0.879-2.242-2.148-3.284-3.808v0c-0.942-1.502-1.564-2.954-1.864-4.357-0.306-1.399-0.337-2.717-0.092-3.951 0.238-1.232 0.728-2.35 1.468-3.356 0.732-1.008 1.674-1.874 2.827-2.597v0c1.136-0.713 2.255-1.11 3.358-1.19 1.108-0.084 2.169 0.077 3.184 0.483 1.013 0.415 1.966 1.04 2.858 1.875 0.902 0.837 1.7 1.81 2.396 2.918v0l0.435 1.855-11.187 7.021c0.448 0.714 0.989 1.37 1.623 1.968 0.634 0.598 1.358 1.045 2.171 1.342 0.814 0.297 1.694 0.395 2.642 0.294 0.951-0.095 1.97-0.484 3.056-1.165v0c0.692-0.434 1.303-0.872 1.832-1.314 0.526-0.448 0.972-0.857 1.336-1.227 0.36-0.375 0.681-0.745 0.962-1.109zM72.628 36.724l8.732-5.479c-0.102-0.163-0.363-0.497-0.782-1.003-0.417-0.514-0.941-0.993-1.572-1.436-0.627-0.437-1.358-0.727-2.192-0.87-0.825-0.141-1.676 0.064-2.554 0.615v0c-0.973 0.611-1.642 1.313-2.007 2.105-0.37 0.797-0.568 1.587-0.593 2.372-0.022 0.79 0.082 1.517 0.31 2.18 0.219 0.662 0.439 1.167 0.658 1.516z" fill="#528265" data-fill-palette-color="primary"></path><path d="M128.655 28.41l-2.275-27.796 6.403-0.524c3.534-0.289 6.199 0.122 7.996 1.234 1.803 1.112 2.826 3.147 3.068 6.105v0c0.134 1.635-0.069 3.02-0.609 4.157-0.533 1.136-1.242 2.077-2.128 2.822-0.879 0.738-1.853 1.294-2.921 1.669-1.062 0.373-2.053 0.598-2.973 0.673v0l-4.04 0.33 0.904 11.049zM130.055 3.391l0.87 10.632 3.753-0.307c0.92-0.075 1.747-0.23 2.48-0.463 0.733-0.24 1.354-0.594 1.862-1.062 0.509-0.461 0.886-1.065 1.131-1.811 0.239-0.746 0.314-1.661 0.225-2.747v0c-0.089-1.085-0.316-1.95-0.682-2.593-0.372-0.636-0.877-1.107-1.515-1.415-0.638-0.301-1.425-0.476-2.361-0.526-0.936-0.043-2.013-0.015-3.231 0.085v0z" fill="#528265" data-fill-palette-color="primary"></path><path d="M173.958 26.796l0.98-4.557c-0.538-0.089-1.05-0.171-1.536-0.249-0.486-0.077-0.967-0.147-1.443-0.208-0.469-0.06-0.898-0.105-1.285-0.134v0c-1.973-0.173-3.424-0.044-4.352 0.388-0.927 0.426-1.511 1.2-1.753 2.323v0c-0.2 0.928-0.064 1.688 0.407 2.278 0.477 0.592 1.18 0.987 2.108 1.187v0c1.279 0.275 2.466 0.299 3.56 0.073 1.095-0.226 2.199-0.593 3.314-1.101zM173.244 31.869l0.074-2.287c-1.408 0.451-2.698 0.782-3.871 0.992-1.171 0.203-2.383 0.17-3.636-0.1v0c-1.785-0.384-3.114-1.121-3.987-2.212-0.866-1.09-1.084-2.634-0.654-4.634v0c0.225-1.045 0.686-1.897 1.385-2.554 0.698-0.658 1.538-1.153 2.52-1.486 0.975-0.334 2.043-0.529 3.203-0.585 1.153-0.058 2.31-0.002 3.469 0.166v0c0.493 0.045 1.13 0.131 1.911 0.258 0.781 0.127 1.388 0.224 1.822 0.29v0c0.201-0.935 0.354-1.775 0.461-2.52 0.106-0.745 0.082-1.405-0.073-1.982-0.154-0.577-0.463-1.054-0.925-1.431-0.462-0.378-1.174-0.67-2.135-0.877v0c-0.773-0.166-1.53-0.278-2.271-0.335-0.74-0.064-1.401-0.104-1.981-0.121v0c-0.698-0.007-1.344 0.01-1.937 0.052v0l-0.048-2.903c0.702-0.012 1.454-0.003 2.256 0.026v0c0.697 0.014 1.494 0.066 2.391 0.158 0.896 0.098 1.854 0.256 2.873 0.475v0c1.357 0.292 2.411 0.726 3.164 1.302 0.757 0.584 1.293 1.266 1.607 2.047 0.322 0.776 0.477 1.617 0.466 2.525-0.01 0.901-0.119 1.832-0.326 2.793v0l-2.062 9.591c-0.081 0.377-0.16 0.774-0.236 1.192-0.075 0.412-0.136 0.823-0.184 1.234-0.046 0.404-0.089 0.826-0.13 1.266v0z" fill="#528265" data-fill-palette-color="primary"></path><path d="M193.101 38.979l7.83-15.383c0.283-0.556 0.665-1.461 1.146-2.714v0l2.884 1.01-1.058 2.803 0.035 0.018c0.721-0.333 1.394-0.602 2.02-0.805 0.619-0.206 1.23-0.346 1.833-0.419 0.603-0.073 1.112-0.004 1.527 0.207v0c0.574 0.262 1.322 0.718 2.244 1.365v0l-2.085 2.471c-0.727-0.549-1.256-0.892-1.587-1.031v0c-0.414-0.211-0.952-0.238-1.612-0.083-0.657 0.15-1.266 0.358-1.826 0.624v0c-0.712 0.316-1.448 0.708-2.209 1.178v0l-6.23 12.241z" fill="#528265" data-fill-palette-color="primary"></path><path d="M237.296 45.591l-2.344 1.816c-0.627-1.02-1.237-1.866-1.83-2.54-0.584-0.674-1.154-1.253-1.711-1.736v0c-0.722-0.627-1.476-0.974-2.262-1.042-0.786-0.067-1.421 0.177-1.904 0.734v0c-0.407 0.509-0.557 1.117-0.451 1.825 0.106 0.708 0.313 1.437 0.62 2.188 0.298 0.751 0.641 1.581 1.029 2.49 0.379 0.91 0.684 1.825 0.914 2.746 0.229 0.921 0.279 1.83 0.149 2.729-0.13 0.899-0.533 1.758-1.21 2.577v0c-0.773 0.85-1.587 1.401-2.439 1.655-0.853 0.253-1.706 0.303-2.56 0.151-0.863-0.151-1.684-0.447-2.463-0.886-0.77-0.44-1.443-0.911-2.019-1.411v0c-0.742-0.644-1.474-1.351-2.197-2.119-0.722-0.768-1.42-1.682-2.091-2.741v0l2.393-1.813c0.714 1.051 1.404 1.963 2.07 2.735 0.657 0.773 1.233 1.375 1.73 1.806v0c0.371 0.322 0.772 0.6 1.202 0.833 0.435 0.228 0.863 0.389 1.284 0.482 0.421 0.102 0.826 0.102 1.214-0.001 0.389-0.093 0.718-0.295 0.988-0.606v0c0.481-0.594 0.71-1.252 0.687-1.975-0.023-0.723-0.19-1.498-0.502-2.323-0.308-0.83-0.656-1.695-1.044-2.596-0.392-0.895-0.699-1.808-0.919-2.738-0.216-0.936-0.265-1.866-0.147-2.793 0.118-0.926 0.552-1.82 1.301-2.683v0c0.536-0.617 1.173-1.031 1.911-1.242 0.739-0.203 1.498-0.246 2.278-0.132 0.781 0.124 1.55 0.362 2.31 0.713 0.759 0.351 1.427 0.778 2.003 1.279v0c0.597 0.518 1.227 1.145 1.89 1.879 0.659 0.74 1.366 1.653 2.12 2.739z" fill="#528265" data-fill-palette-color="primary"></path><path d="M246.237 84.705l-1.943 2.028c-0.503-0.423-0.996-0.873-1.479-1.35-0.487-0.482-0.996-1.029-1.529-1.64-0.532-0.611-1.039-1.279-1.518-2.005v0c-0.755-1.14-1.298-2.302-1.628-3.485-0.328-1.193-0.381-2.384-0.158-3.576 0.223-1.191 0.757-2.369 1.602-3.534 0.851-1.169 2.093-2.294 3.726-3.375v0c1.478-0.979 2.915-1.636 4.31-1.971 1.391-0.34 2.708-0.403 3.948-0.189 1.237 0.208 2.367 0.67 3.391 1.385 1.026 0.707 1.914 1.627 2.666 2.763v0c0.741 1.118 1.165 2.227 1.271 3.327 0.111 1.105-0.024 2.17-0.404 3.195-0.39 1.023-0.991 1.991-1.805 2.903-0.815 0.922-1.768 1.744-2.858 2.467v0l-1.844 0.481-7.293-11.012c-0.703 0.466-1.346 1.023-1.928 1.671-0.582 0.648-1.012 1.383-1.288 2.204-0.277 0.821-0.353 1.703-0.229 2.648 0.119 0.949 0.532 1.957 1.239 3.026v0c0.451 0.681 0.904 1.281 1.36 1.8 0.461 0.515 0.88 0.95 1.258 1.305 0.384 0.351 0.761 0.663 1.133 0.934zM246.942 69.771l5.692 8.594c0.161-0.106 0.488-0.375 0.984-0.806 0.504-0.429 0.97-0.965 1.397-1.607 0.422-0.638 0.694-1.375 0.816-2.213 0.12-0.828-0.105-1.674-0.678-2.538v0c-0.634-0.958-1.352-1.609-2.154-1.954-0.806-0.351-1.601-0.529-2.385-0.535-0.79-0.002-1.514 0.119-2.173 0.364-0.656 0.236-1.156 0.467-1.499 0.695z" fill="#528265" data-fill-palette-color="primary"></path><path d="M251.144 103.47l16.343-5.554c0.591-0.201 1.496-0.582 2.715-1.144v0l1.361 2.736-2.714 1.269 0.013 0.038c0.749 0.264 1.418 0.542 2.008 0.832 0.588 0.284 1.123 0.611 1.606 0.98 0.483 0.369 0.799 0.773 0.949 1.213v0c0.228 0.589 0.446 1.437 0.654 2.544v0l-3.217 0.315c-0.138-0.9-0.277-1.516-0.417-1.846v0c-0.15-0.44-0.515-0.835-1.097-1.184-0.575-0.351-1.157-0.627-1.744-0.828v0c-0.73-0.271-1.532-0.503-2.404-0.698v0l-13.005 4.421z" fill="#528265" data-fill-palette-color="primary"></path><path d="M13.799 143.343c0-1.962 1.59-3.552 3.552-3.552 1.962 0 3.552 1.59 3.552 3.552 0 1.962-1.59 3.552-3.552 3.552-1.962 0-3.552-1.59-3.552-3.552z" fill="#528265" data-fill-palette-color="primary"></path><path d="M264.805 143.343c0-1.962 1.59-3.552 3.552-3.552 1.962 0 3.552 1.59 3.552 3.552 0 1.962-1.59 3.552-3.552 3.552-1.962 0-3.552-1.59-3.552-3.552z" fill="#528265" data-fill-palette-color="primary"></path></g><g id="text-1"><path d="M11.959 183.492l29.299-10.116 6.199 17.955-3.304 1.141-4.954-14.349-9.368 3.235 4.596 13.312-3.22 1.112-4.596-13.313-13.407 4.629z" fill="#528265" data-fill-palette-color="primary"></path><path d="M28.56 219.496l19.194-12.506 2.327 2.823-19.536 12.729zM52.869 202.944v0c0.584-0.381 1.202-0.502 1.854-0.365 0.652 0.138 1.169 0.499 1.55 1.083v0c0.395 0.606 0.531 1.247 0.408 1.921-0.119 0.68-0.471 1.211-1.056 1.592v0c-0.584 0.381-1.209 0.486-1.873 0.317-0.667-0.16-1.198-0.543-1.593-1.149v0c-0.381-0.584-0.502-1.202-0.365-1.855 0.132-0.649 0.49-1.163 1.075-1.544z" fill="#528265" data-fill-palette-color="primary"></path><path d="M44.41 239.298l24.727-23.4 2.796 2.36-25.024 23.68z" fill="#528265" data-fill-palette-color="primary"></path><path d="M80.043 261.739l-1.052 2.929c-0.703-0.193-1.409-0.424-2.12-0.693-0.71-0.269-1.473-0.591-2.288-0.965-0.821-0.378-1.642-0.827-2.461-1.346v0c-1.279-0.81-2.355-1.742-3.228-2.797-0.876-1.05-1.471-2.232-1.786-3.547-0.318-1.31-0.315-2.749 0.011-4.32 0.331-1.566 1.081-3.272 2.25-5.118v0c1.051-1.661 2.208-2.98 3.471-3.956 1.263-0.977 2.57-1.639 3.921-1.986 1.351-0.347 2.705-0.394 4.061-0.14 1.365 0.251 2.691 0.784 3.976 1.597v0c1.251 0.792 2.182 1.723 2.793 2.793 0.617 1.074 0.963 2.216 1.038 3.427 0.075 1.21-0.093 2.468-0.502 3.773-0.411 1.296-1.006 2.558-1.784 3.786v0l-1.643 1.33-12.406-7.853c-0.501 0.791-0.902 1.649-1.204 2.574-0.293 0.923-0.393 1.862-0.298 2.817 0.094 0.956 0.417 1.887 0.967 2.793 0.556 0.91 1.437 1.746 2.643 2.51v0c0.769 0.487 1.501 0.887 2.197 1.203 0.696 0.315 1.318 0.563 1.864 0.743 0.548 0.19 1.075 0.338 1.58 0.446zM73.959 246.265l9.679 6.127c0.114-0.18 0.329-0.601 0.647-1.265 0.309-0.661 0.534-1.415 0.676-2.26 0.139-0.84 0.08-1.71-0.175-2.609-0.259-0.895-0.876-1.651-1.853-2.269v0c-1.072-0.678-2.096-1.016-3.072-1.014-0.974 0.012-1.861 0.197-2.661 0.555-0.797 0.352-1.473 0.8-2.03 1.344-0.562 0.54-0.965 1.004-1.211 1.391z" fill="#528265" data-fill-palette-color="primary"></path><path d="M125.127 279.654l2.81-30.869 7.103 0.647c3.921 0.357 6.761 1.316 8.519 2.876 1.765 1.561 2.498 3.985 2.199 7.271v0c-0.165 1.812-0.649 3.288-1.454 4.428-0.805 1.147-1.763 2.043-2.875 2.689-1.106 0.646-2.278 1.073-3.517 1.28-1.232 0.201-2.36 0.255-3.385 0.162v0l-4.484-0.408-1.117 12.27zM131.428 252.523l-1.076 11.814 4.166 0.38c1.025 0.093 1.96 0.082 2.804-0.035 0.851-0.123 1.599-0.391 2.243-0.806 0.645-0.415 1.169-1.007 1.572-1.777 0.41-0.763 0.669-1.749 0.78-2.96v0c0.11-1.204 0.023-2.192-0.26-2.964-0.276-0.772-0.737-1.384-1.383-1.836-0.645-0.459-1.474-0.801-2.487-1.026-1.012-0.232-2.196-0.41-3.552-0.534v0z" fill="#528265" data-fill-palette-color="primary"></path><path d="M176.327 271.231l-1.06-5.069c-0.586 0.15-1.142 0.297-1.668 0.44-0.526 0.144-1.045 0.29-1.557 0.438-0.51 0.154-0.968 0.304-1.372 0.449v0c-2.075 0.719-3.488 1.503-4.24 2.352-0.75 0.856-0.996 1.904-0.736 3.146v0c0.217 1.04 0.699 1.753 1.445 2.14 0.746 0.387 1.639 0.471 2.679 0.254v0c1.423-0.298 2.64-0.806 3.649-1.526 1.008-0.726 1.962-1.601 2.86-2.624zM177.891 276.715l-0.95-2.356c-1.23 1.092-2.396 2.007-3.496 2.746-1.094 0.738-2.34 1.252-3.738 1.545v0c-1.989 0.416-3.669 0.265-5.04-0.452-1.371-0.717-2.29-2.191-2.756-4.42v0c-0.241-1.15-0.156-2.22 0.256-3.208 0.412-0.982 1.042-1.863 1.889-2.644 0.841-0.78 1.835-1.459 2.982-2.038 1.147-0.579 2.349-1.047 3.604-1.405v0c0.527-0.171 1.215-0.369 2.064-0.594 0.848-0.225 1.506-0.403 1.974-0.535v0c-0.216-1.033-0.439-1.954-0.669-2.76-0.228-0.8-0.553-1.458-0.973-1.975-0.413-0.517-0.941-0.865-1.581-1.043-0.64-0.172-1.496-0.145-2.569 0.08v0c-0.858 0.179-1.676 0.405-2.453 0.676-0.778 0.271-1.466 0.531-2.066 0.778v0c-0.71 0.304-1.358 0.61-1.945 0.915v0l-1.354-2.922c0.704-0.33 1.47-0.66 2.296-0.989v0c0.71-0.304 1.544-0.611 2.504-0.921 0.96-0.309 2.002-0.581 3.126-0.816v0c1.514-0.317 2.783-0.348 3.807-0.094 1.028 0.246 1.881 0.692 2.559 1.337 0.679 0.652 1.217 1.438 1.613 2.359 0.39 0.923 0.697 1.92 0.921 2.993v0l2.232 10.675c0.087 0.416 0.188 0.849 0.303 1.301 0.11 0.459 0.234 0.908 0.373 1.346 0.131 0.434 0.279 0.881 0.443 1.342v0z" fill="#528265" data-fill-palette-color="primary"></path><path d="M201.964 267.514l-8.597-17.149c-0.312-0.623-0.869-1.563-1.669-2.818v0l2.804-1.918 1.807 2.804 0.045-0.022c0.174-0.867 0.378-1.646 0.612-2.335 0.225-0.692 0.505-1.334 0.84-1.925 0.329-0.588 0.725-0.999 1.188-1.231v0c0.611-0.336 1.512-0.702 2.703-1.098v0l0.836 3.491c-0.977 0.289-1.633 0.536-1.968 0.741v0c-0.463 0.232-0.844 0.694-1.143 1.387-0.293 0.689-0.508 1.372-0.644 2.05v0c-0.189 0.838-0.325 1.752-0.407 2.744v0l6.843 13.65z" fill="#528265" data-fill-palette-color="primary"></path><path d="M223.636 225.482l1.612 2.867c-1.224 0.53-2.255 1.062-3.092 1.594-0.838 0.542-1.568 1.078-2.189 1.609v0c-0.803 0.686-1.311 1.456-1.524 2.311-0.204 0.855-0.04 1.593 0.491 2.214v0c0.495 0.529 1.141 0.794 1.937 0.795 0.796 0.001 1.631-0.105 2.504-0.319 0.878-0.209 1.848-0.448 2.911-0.719 1.067-0.274 2.125-0.462 3.174-0.563 1.049-0.101 2.056-0.006 3.022 0.287 0.966 0.292 1.846 0.877 2.639 1.754v0c0.799 0.986 1.268 1.969 1.407 2.95 0.135 0.976 0.051 1.926-0.251 2.849-0.313 0.922-0.773 1.774-1.381 2.555-0.612 0.776-1.241 1.44-1.887 1.992v0c-0.828 0.707-1.722 1.393-2.683 2.058-0.966 0.668-2.086 1.285-3.36 1.848v0l-1.6-2.93c1.272-0.607 2.389-1.211 3.35-1.814 0.961-0.603 1.717-1.139 2.267-1.61v0c0.414-0.354 0.784-0.749 1.11-1.184 0.322-0.441 0.571-0.885 0.748-1.333 0.176-0.448 0.242-0.892 0.196-1.334-0.04-0.446-0.207-0.84-0.5-1.184v0c-0.572-0.629-1.257-0.991-2.056-1.087-0.803-0.091-1.683-0.033-2.642 0.175-0.963 0.202-1.971 0.444-3.023 0.723-1.053 0.28-2.109 0.466-3.167 0.557-1.062 0.086-2.093-0.011-3.092-0.292-1-0.281-1.912-0.904-2.736-1.868v0c-0.591-0.692-0.94-1.463-1.048-2.314-0.103-0.846-0.028-1.688 0.227-2.526 0.263-0.837 0.652-1.644 1.165-2.424 0.508-0.775 1.085-1.438 1.731-1.99v0c0.671-0.574 1.466-1.161 2.385-1.763 0.914-0.606 2.033-1.235 3.355-1.884z" fill="#528265" data-fill-palette-color="primary"></path><path d="M258.673 210.188l2.898 1.134c-0.213 0.697-0.464 1.397-0.752 2.099-0.288 0.702-0.632 1.456-1.029 2.261-0.401 0.81-0.873 1.618-1.414 2.422v0c-0.845 1.256-1.807 2.305-2.886 3.148-1.074 0.846-2.272 1.408-3.596 1.687-1.318 0.282-2.757 0.238-4.317-0.132-1.556-0.375-3.241-1.172-5.054-2.392v0c-1.631-1.097-2.917-2.291-3.858-3.581-0.941-1.29-1.566-2.615-1.875-3.975-0.309-1.361-0.318-2.715-0.026-4.063 0.289-1.358 0.859-2.668 1.707-3.93v0c0.827-1.229 1.784-2.133 2.871-2.714 1.091-0.586 2.242-0.9 3.455-0.941 1.212-0.041 2.464 0.162 3.757 0.607 1.284 0.448 2.529 1.077 3.735 1.89v0l1.283 1.679-8.197 12.181c0.777 0.523 1.623 0.948 2.539 1.276 0.914 0.319 1.85 0.444 2.808 0.377 0.958-0.068 1.898-0.364 2.819-0.889 0.925-0.53 1.786-1.387 2.583-2.572v0c0.508-0.755 0.929-1.476 1.263-2.163 0.334-0.687 0.6-1.301 0.796-1.842 0.205-0.542 0.368-1.065 0.49-1.567zM243.035 215.837l6.394-9.504c-0.176-0.119-0.592-0.346-1.245-0.682-0.652-0.327-1.399-0.573-2.24-0.739-0.835-0.162-1.707-0.128-2.614 0.102-0.902 0.234-1.675 0.83-2.32 1.789v0c-0.708 1.052-1.074 2.066-1.099 3.042-0.015 0.974 0.145 1.866 0.48 2.676 0.33 0.806 0.759 1.495 1.287 2.067 0.524 0.577 0.976 0.993 1.357 1.249z" fill="#528265" data-fill-palette-color="primary"></path><path d="M271.231 191.445l-18.114-6.317c-0.658-0.23-1.712-0.516-3.16-0.859v0l0.676-3.33 3.25 0.754 0.016-0.047c-0.479-0.744-0.875-1.444-1.187-2.102-0.321-0.653-0.567-1.309-0.738-1.966-0.174-0.651-0.175-1.221-0.005-1.711v0c0.204-0.667 0.596-1.557 1.174-2.671v0l3.032 1.923c-0.499 0.888-0.798 1.522-0.896 1.903v0c-0.171 0.489-0.122 1.086 0.146 1.791 0.27 0.699 0.592 1.339 0.966 1.919v0c0.448 0.733 0.988 1.484 1.619 2.252v0l14.418 5.028z" fill="#528265" data-fill-palette-color="primary"></path></g></svg></g></svg></g></svg></g></svg></g><defs></defs></svg><rect width="280" height="280" fill="none" stroke="none" visibility="hidden"></rect></g></svg></g></svg>